<svg width="335" height="28" viewBox="0 0 335 28" fill="none" xmlns="http://www.w3.org/2000/svg">
<rect width="335" height="28" rx="14" fill="#EEEEEE"/>
<rect x="3" y="3" width="22" height="22" rx="11" fill="#4661F5"/>
<path d="M14.0001 15.8664C15.031 15.8664 15.8668 15.0307 15.8668 13.9997C15.8668 12.9688 15.031 12.1331 14.0001 12.1331C12.9692 12.1331 12.1334 12.9688 12.1334 13.9997C12.1334 15.0307 12.9692 15.8664 14.0001 15.8664Z" fill="white"/>
<path d="M12.25 8.16675L11.1825 9.33341H9.33334C8.69167 9.33341 8.16667 9.85841 8.16667 10.5001V17.5001C8.16667 18.1417 8.69167 18.6667 9.33334 18.6667H18.6667C19.3083 18.6667 19.8333 18.1417 19.8333 17.5001V10.5001C19.8333 9.85841 19.3083 9.33341 18.6667 9.33341H16.8175L15.75 8.16675H12.25ZM14 16.9167C12.39 16.9167 11.0833 15.6101 11.0833 14.0001C11.0833 12.3901 12.39 11.0834 14 11.0834C15.61 11.0834 16.9167 12.3901 16.9167 14.0001C16.9167 15.6101 15.61 16.9167 14 16.9167Z" fill="white"/>
<path d="M266 15.6667C267.383 15.6667 268.492 14.5501 268.492 13.1667L268.5 8.16675C268.5 6.78341 267.383 5.66675 266 5.66675C264.617 5.66675 263.5 6.78341 263.5 8.16675V13.1667C263.5 14.5501 264.617 15.6667 266 15.6667ZM265 8.08341C265 7.53341 265.45 7.08341 266 7.08341C266.55 7.08341 267 7.53341 267 8.08341L266.992 13.2501C266.992 13.8001 266.55 14.2501 266 14.2501C265.45 14.2501 265 13.8001 265 13.2501V8.08341ZM270.417 13.1667C270.417 15.6667 268.3 17.4167 266 17.4167C263.7 17.4167 261.583 15.6667 261.583 13.1667H260.167C260.167 16.0084 262.433 18.3584 265.167 18.7667V21.5001H266.833V18.7667C269.567 18.3667 271.833 16.0167 271.833 13.1667H270.417Z" fill="black"/>
<path d="M292.617 17.8143L294.938 14.8243L297.444 18.1667H292.344L292.617 17.8143ZM291.838 17.8272L292.12 18.1667H288.578L290.291 15.9646L291.838 17.8272ZM300.5 19.4444V8.55556C300.5 7.42386 299.576 6.5 298.444 6.5H287.556C286.424 6.5 285.5 7.42386 285.5 8.55556V19.4444C285.5 20.5761 286.424 21.5 287.556 21.5H298.444C299.576 21.5 300.5 20.5761 300.5 19.4444Z" stroke="black"/>
<path d="M319.992 5.66675C315.392 5.66675 311.667 9.40008 311.667 14.0001C311.667 18.6001 315.392 22.3334 319.992 22.3334C324.6 22.3334 328.333 18.6001 328.333 14.0001C328.333 9.40008 324.6 5.66675 319.992 5.66675ZM320 20.6667C316.317 20.6667 313.333 17.6834 313.333 14.0001C313.333 10.3167 316.317 7.33341 320 7.33341C323.683 7.33341 326.667 10.3167 326.667 14.0001C326.667 17.6834 323.683 20.6667 320 20.6667ZM322.917 13.1667C323.608 13.1667 324.167 12.6084 324.167 11.9167C324.167 11.2251 323.608 10.6667 322.917 10.6667C322.225 10.6667 321.667 11.2251 321.667 11.9167C321.667 12.6084 322.225 13.1667 322.917 13.1667ZM317.083 13.1667C317.775 13.1667 318.333 12.6084 318.333 11.9167C318.333 11.2251 317.775 10.6667 317.083 10.6667C316.392 10.6667 315.833 11.2251 315.833 11.9167C315.833 12.6084 316.392 13.1667 317.083 13.1667ZM320 18.5834C321.942 18.5834 323.592 17.3667 324.258 15.6667H315.742C316.408 17.3667 318.058 18.5834 320 18.5834Z" fill="black"/>
</svg>
