<svg width="266" height="57" viewBox="0 0 266 57" fill="none" xmlns="http://www.w3.org/2000/svg">
<rect x="12" width="201" height="38" rx="19" fill="white"/>
<rect x="216" width="38" height="38" rx="19" fill="white"/>
<path d="M235 21C236.66 21 237.99 19.66 237.99 18L238 12C238 10.34 236.66 9 235 9C233.34 9 232 10.34 232 12V18C232 19.66 233.34 21 235 21ZM233.8 11.9C233.8 11.24 234.34 10.7 235 10.7C235.66 10.7 236.2 11.24 236.2 11.9L236.19 18.1C236.19 18.76 235.66 19.3 235 19.3C234.34 19.3 233.8 18.76 233.8 18.1V11.9ZM240.3 18C240.3 21 237.76 23.1 235 23.1C232.24 23.1 229.7 21 229.7 18H228C228 21.41 230.72 24.23 234 24.72V28H236V24.72C239.28 24.24 242 21.42 242 18H240.3Z" fill="#6C6D6D"/>
<path d="M190 21.4001C191.325 21.4001 192.4 20.3256 192.4 19.0001C192.4 17.6746 191.325 16.6001 190 16.6001C188.674 16.6001 187.6 17.6746 187.6 19.0001C187.6 20.3256 188.674 21.4001 190 21.4001Z" fill="#6C6D6D"/>
<path d="M187.75 11.5L186.378 13H184C183.175 13 182.5 13.675 182.5 14.5V23.5C182.5 24.325 183.175 25 184 25H196C196.825 25 197.5 24.325 197.5 23.5V14.5C197.5 13.675 196.825 13 196 13H193.622L192.25 11.5H187.75ZM190 22.75C187.93 22.75 186.25 21.07 186.25 19C186.25 16.93 187.93 15.25 190 15.25C192.07 15.25 193.75 16.93 193.75 19C193.75 21.07 192.07 22.75 190 22.75Z" fill="#6C6D6D"/>
<path d="M165.648 14.7665L169.031 20.6258C169.681 21.7518 169.295 23.1903 168.169 23.8404C167.043 24.4905 165.605 24.1051 164.955 22.9791L161.278 16.6103C160.872 15.9072 161.113 15.0071 161.816 14.6012C162.519 14.1952 163.419 14.4364 163.825 15.1395L166.914 20.4893C167.076 20.7695 166.979 21.1311 166.699 21.2929C166.418 21.4547 166.057 21.3578 165.895 21.0776L163.1 16.2373L162.336 16.6786L165.131 21.5188C165.537 22.2219 166.437 22.4631 167.14 22.0572C167.843 21.6512 168.084 20.7511 167.678 20.048L164.59 14.6983C163.939 13.5723 162.501 13.1868 161.375 13.8369C160.249 14.487 159.863 15.9256 160.514 17.0516L164.191 23.4203C165.085 24.9692 167.062 25.4989 168.611 24.6047C170.16 23.7104 170.689 21.7334 169.795 20.1845L166.412 14.3253L165.648 14.7665Z" fill="#6C6D6D"/>
<path d="M35.9925 11.5C31.8525 11.5 28.5 14.86 28.5 19C28.5 23.14 31.8525 26.5 35.9925 26.5C40.14 26.5 43.5 23.14 43.5 19C43.5 14.86 40.14 11.5 35.9925 11.5ZM36 25C32.685 25 30 22.315 30 19C30 15.685 32.685 13 36 13C39.315 13 42 15.685 42 19C42 22.315 39.315 25 36 25ZM38.625 18.25C39.2475 18.25 39.75 17.7475 39.75 17.125C39.75 16.5025 39.2475 16 38.625 16C38.0025 16 37.5 16.5025 37.5 17.125C37.5 17.7475 38.0025 18.25 38.625 18.25ZM33.375 18.25C33.9975 18.25 34.5 17.7475 34.5 17.125C34.5 16.5025 33.9975 16 33.375 16C32.7525 16 32.25 16.5025 32.25 17.125C32.25 17.7475 32.7525 18.25 33.375 18.25ZM36 23.125C37.7475 23.125 39.2325 22.03 39.8325 20.5H32.1675C32.7675 22.03 34.2525 23.125 36 23.125Z" fill="#6C6D6D"/>
</svg>
