<svg width="243" height="28" viewBox="0 0 243 28" fill="none" xmlns="http://www.w3.org/2000/svg">
<rect width="243" height="28" rx="14" fill="#EEEEEE"/>
<rect x="3" y="3" width="22" height="22" rx="11" fill="#4661F5"/>
<path d="M14.0001 15.8663C15.031 15.8663 15.8668 15.0306 15.8668 13.9997C15.8668 12.9687 15.031 12.133 14.0001 12.133C12.9692 12.133 12.1334 12.9687 12.1334 13.9997C12.1334 15.0306 12.9692 15.8663 14.0001 15.8663Z" fill="white"/>
<path d="M12.25 8.16669L11.1825 9.33335H9.33335C8.69169 9.33335 8.16669 9.85835 8.16669 10.5V17.5C8.16669 18.1417 8.69169 18.6667 9.33335 18.6667H18.6667C19.3084 18.6667 19.8334 18.1417 19.8334 17.5V10.5C19.8334 9.85835 19.3084 9.33335 18.6667 9.33335H16.8175L15.75 8.16669H12.25ZM14 16.9167C12.39 16.9167 11.0834 15.61 11.0834 14C11.0834 12.39 12.39 11.0834 14 11.0834C15.61 11.0834 16.9167 12.39 16.9167 14C16.9167 15.61 15.61 16.9167 14 16.9167Z" fill="white"/>
<path d="M174 15.6667C175.383 15.6667 176.492 14.55 176.492 13.1667L176.5 8.16669C176.5 6.78335 175.383 5.66669 174 5.66669C172.617 5.66669 171.5 6.78335 171.5 8.16669V13.1667C171.5 14.55 172.617 15.6667 174 15.6667ZM173 8.08335C173 7.53335 173.45 7.08335 174 7.08335C174.55 7.08335 175 7.53335 175 8.08335L174.992 13.25C174.992 13.8 174.55 14.25 174 14.25C173.45 14.25 173 13.8 173 13.25V8.08335ZM178.417 13.1667C178.417 15.6667 176.3 17.4167 174 17.4167C171.7 17.4167 169.583 15.6667 169.583 13.1667H168.167C168.167 16.0084 170.433 18.3584 173.167 18.7667V21.5H174.833V18.7667C177.567 18.3667 179.833 16.0167 179.833 13.1667H178.417Z" fill="black"/>
<path d="M200.617 17.8143L202.938 14.8243L205.444 18.1667H200.344L200.617 17.8143ZM199.838 17.8272L200.12 18.1667H196.578L198.291 15.9646L199.838 17.8272ZM208.5 19.4444V8.55556C208.5 7.42386 207.576 6.5 206.444 6.5H195.556C194.424 6.5 193.5 7.42386 193.5 8.55556V19.4444C193.5 20.5761 194.424 21.5 195.556 21.5H206.444C207.576 21.5 208.5 20.5761 208.5 19.4444Z" stroke="black"/>
<path d="M227.992 5.66669C223.392 5.66669 219.667 9.40002 219.667 14C219.667 18.6 223.392 22.3334 227.992 22.3334C232.6 22.3334 236.333 18.6 236.333 14C236.333 9.40002 232.6 5.66669 227.992 5.66669ZM228 20.6667C224.317 20.6667 221.333 17.6834 221.333 14C221.333 10.3167 224.317 7.33335 228 7.33335C231.683 7.33335 234.667 10.3167 234.667 14C234.667 17.6834 231.683 20.6667 228 20.6667ZM230.917 13.1667C231.608 13.1667 232.167 12.6084 232.167 11.9167C232.167 11.225 231.608 10.6667 230.917 10.6667C230.225 10.6667 229.667 11.225 229.667 11.9167C229.667 12.6084 230.225 13.1667 230.917 13.1667ZM225.083 13.1667C225.775 13.1667 226.333 12.6084 226.333 11.9167C226.333 11.225 225.775 10.6667 225.083 10.6667C224.392 10.6667 223.833 11.225 223.833 11.9167C223.833 12.6084 224.392 13.1667 225.083 13.1667ZM228 18.5834C229.942 18.5834 231.592 17.3667 232.258 15.6667H223.742C224.408 17.3667 226.058 18.5834 228 18.5834Z" fill="black"/>
</svg>
