<svg width="266" height="58" viewBox="0 0 266 58" fill="none" xmlns="http://www.w3.org/2000/svg">
<g clip-path="url(#clip0)">
<rect width="266" height="58" fill="black"/>
<mask id="mask0" mask-type="alpha" maskUnits="userSpaceOnUse" x="0" y="0" width="266" height="2195">
<path d="M0 28.0001C0 12.5361 12.536 0 28 0H52.4474C55.7901 0 58.5 2.70986 58.5 6.05263C58.5 15.4124 66.0876 23 75.4474 23H190.553C199.912 23 207.5 15.4124 207.5 6.05263C207.5 2.70986 210.21 0 213.553 0H238C253.464 0 266 12.536 266 28V2167C266 2182.46 253.464 2195 238 2195H28C12.536 2195 0 2182.46 0 2167V28.0001Z" fill="white"/>
</mask>
<g mask="url(#mask0)">
<rect width="266" height="58" fill="white"/>
</g>
<rect x="233" y="30" width="21" height="21" rx="10.5" fill="#DBDBDB"/>
<path d="M32 40H19.83L25.42 34.41L24 33L16 41L24 49L25.41 47.59L19.83 42H32V40Z" fill="#1C56B2"/>
<path d="M120.249 41L119.712 39.291H117.236L116.699 41H115.186L117.632 33.9541H119.365L121.816 41H120.249ZM118.457 35.3018L117.554 38.1875H119.395L118.491 35.3018H118.457ZM125.947 41V38.8564H123.936V41H122.515V35.7656H123.936V37.7773H125.947V35.7656H127.368V41H125.947ZM132.637 35.7656V36.8398H131.079V41H129.658V36.8398H128.096V35.7656H132.637ZM137.563 40.3896C137.098 40.8714 136.466 41.1123 135.669 41.1123C134.871 41.1123 134.24 40.8698 133.774 40.3848C133.309 39.8997 133.076 39.2308 133.076 38.3779C133.076 37.5348 133.311 36.8708 133.779 36.3857C134.251 35.8975 134.881 35.6533 135.669 35.6533C136.46 35.6533 137.09 35.8975 137.559 36.3857C138.027 36.8708 138.262 37.5348 138.262 38.3779C138.262 39.234 138.029 39.9046 137.563 40.3896ZM135.669 40.0234C136.021 40.0234 136.299 39.8802 136.504 39.5938C136.709 39.3073 136.812 38.9036 136.812 38.3828C136.812 37.8685 136.709 37.4665 136.504 37.1768C136.299 36.887 136.021 36.7422 135.669 36.7422C135.317 36.7422 135.037 36.887 134.829 37.1768C134.624 37.4665 134.521 37.8685 134.521 38.3828C134.521 38.9036 134.624 39.3073 134.829 39.5938C135.034 39.8802 135.314 40.0234 135.669 40.0234ZM141.113 39.1836H141.084L140.103 41H138.604L140.244 38.3926L138.613 35.7656H140.22L141.162 37.5332H141.191L142.119 35.7656H143.672L142.036 38.3535L143.657 41H142.109L141.113 39.1836ZM146.304 40.0527C146.619 40.0527 146.886 39.9616 147.104 39.7793C147.326 39.5938 147.437 39.361 147.437 39.0811V38.7002L146.333 38.7686C146.066 38.7881 145.859 38.8548 145.713 38.9688C145.57 39.0827 145.498 39.2324 145.498 39.418C145.498 39.6133 145.571 39.7679 145.718 39.8818C145.864 39.9958 146.06 40.0527 146.304 40.0527ZM145.835 41.083C145.33 41.083 144.912 40.9349 144.58 40.6387C144.248 40.3424 144.082 39.9616 144.082 39.4961C144.082 39.0208 144.258 38.6481 144.609 38.3779C144.961 38.1077 145.464 37.9531 146.118 37.9141L147.437 37.8359V37.4893C147.437 37.2484 147.357 37.0596 147.197 36.9229C147.041 36.7861 146.828 36.7178 146.558 36.7178C146.297 36.7178 146.084 36.7764 145.918 36.8936C145.755 37.0107 145.656 37.1686 145.62 37.3672H144.316C144.342 36.8529 144.562 36.4395 144.976 36.127C145.389 35.8112 145.938 35.6533 146.621 35.6533C147.292 35.6533 147.829 35.8128 148.232 36.1318C148.636 36.4508 148.838 36.874 148.838 37.4014V41H147.461V40.1992H147.432C147.288 40.4727 147.07 40.6891 146.777 40.8486C146.484 41.0049 146.17 41.083 145.835 41.083Z" fill="black"/>
<path d="M104.331 47.7314C104.331 48.1045 104.204 48.4092 103.95 48.6455C103.698 48.8818 103.374 49 102.978 49H101.439V44.7725H103.909V45.2471H101.967V46.457H102.972C103.37 46.457 103.696 46.5762 103.95 46.8145C104.204 47.0508 104.331 47.3564 104.331 47.7314ZM101.967 48.5254H102.84C103.143 48.5254 103.376 48.457 103.54 48.3203C103.706 48.1816 103.789 47.9854 103.789 47.7314C103.789 47.4756 103.706 47.2783 103.54 47.1396C103.376 47.001 103.143 46.9316 102.84 46.9316H101.967V48.5254ZM107.65 49V45.9531H108.154V49H107.65ZM106.115 47.3447H105.547V48.5811H106.115C106.312 48.5811 106.47 48.5244 106.587 48.4111C106.706 48.2979 106.766 48.1484 106.766 47.9629C106.766 47.7754 106.706 47.626 106.587 47.5146C106.47 47.4014 106.312 47.3447 106.115 47.3447ZM105.043 49V45.9531H105.547V46.9258H106.124C106.474 46.9258 106.752 47.0195 106.959 47.207C107.166 47.3945 107.27 47.6465 107.27 47.9629C107.27 48.2793 107.166 48.5312 106.959 48.7188C106.752 48.9062 106.474 49 106.124 49H105.043ZM109.684 47.6553C109.67 47.8311 109.65 47.9863 109.625 48.1211C109.602 48.2559 109.567 48.3818 109.522 48.499C109.478 48.6162 109.422 48.7129 109.355 48.7891C109.291 48.8633 109.21 48.9219 109.112 48.9648C109.017 49.0059 108.905 49.0264 108.778 49.0264C108.708 49.0264 108.647 49.0156 108.597 48.9941V48.5342C108.644 48.5498 108.695 48.5576 108.752 48.5576C108.895 48.5576 109.001 48.4805 109.071 48.3262C109.142 48.1699 109.187 47.9424 109.206 47.6436L109.323 45.9531H111.318V49H110.814V46.3721H109.777L109.684 47.6553ZM114.301 49.8994C113.746 49.1943 113.469 48.3398 113.469 47.3359C113.469 46.332 113.746 45.4775 114.301 44.7725H114.729C114.52 45.0146 114.344 45.3828 114.201 45.877C114.059 46.3711 113.987 46.8574 113.987 47.3359C113.987 47.8145 114.059 48.3008 114.201 48.7949C114.344 49.2891 114.52 49.6572 114.729 49.8994H114.301ZM117.093 47.5234H115.171V47.0488H117.093V47.5234ZM118.783 48.6191C119.023 48.6191 119.225 48.5449 119.387 48.3965C119.551 48.2461 119.633 48.0615 119.633 47.8428V47.5938L118.818 47.6436C118.613 47.6572 118.454 47.707 118.341 47.793C118.229 47.8789 118.174 47.9941 118.174 48.1387C118.174 48.2832 118.229 48.3994 118.341 48.4873C118.452 48.5752 118.6 48.6191 118.783 48.6191ZM118.669 49.0527C118.366 49.0527 118.121 48.9688 117.934 48.8008C117.748 48.6328 117.655 48.4121 117.655 48.1387C117.655 47.877 117.751 47.668 117.942 47.5117C118.136 47.3555 118.408 47.2676 118.76 47.248L119.633 47.1982V46.9434C119.633 46.7578 119.574 46.6123 119.457 46.5068C119.34 46.4014 119.176 46.3486 118.965 46.3486C118.771 46.3486 118.614 46.3916 118.493 46.4775C118.372 46.5615 118.295 46.6797 118.262 46.832H117.77C117.787 46.5605 117.904 46.3379 118.121 46.1641C118.34 45.9883 118.625 45.9004 118.977 45.9004C119.334 45.9004 119.617 45.9902 119.826 46.1699C120.037 46.3496 120.143 46.5908 120.143 46.8936V49H119.659V48.4756H119.647C119.556 48.6494 119.421 48.7891 119.243 48.8945C119.065 49 118.874 49.0527 118.669 49.0527ZM121.792 46.4512C121.841 46.7227 121.865 47.0176 121.865 47.3359C121.865 47.6543 121.841 47.9502 121.792 48.2236C121.745 48.4951 121.678 48.7354 121.59 48.9443C121.502 49.1533 121.415 49.3281 121.329 49.4688C121.245 49.6113 121.146 49.7549 121.033 49.8994H120.605C120.678 49.8154 120.753 49.6992 120.831 49.5508C120.911 49.4043 120.991 49.2236 121.071 49.0088C121.151 48.7959 121.217 48.542 121.268 48.2471C121.32 47.9521 121.347 47.6484 121.347 47.3359C121.347 47.0234 121.32 46.7197 121.268 46.4248C121.217 46.1279 121.15 45.873 121.068 45.6602C120.988 45.4473 120.909 45.2676 120.831 45.1211C120.753 44.9727 120.678 44.8564 120.605 44.7725H121.033C121.146 44.917 121.245 45.0605 121.329 45.2031C121.415 45.3438 121.502 45.5186 121.59 45.7275C121.678 45.9365 121.745 46.1777 121.792 46.4512ZM126.532 46.8906H126.028C125.981 46.7324 125.893 46.6025 125.762 46.501C125.631 46.3994 125.464 46.3486 125.261 46.3486C124.995 46.3486 124.782 46.4521 124.622 46.6592C124.462 46.8643 124.382 47.1367 124.382 47.4766C124.382 47.8223 124.462 48.0967 124.622 48.2998C124.784 48.5029 124.999 48.6045 125.267 48.6045C125.466 48.6045 125.631 48.5576 125.762 48.4639C125.895 48.3701 125.985 48.2383 126.034 48.0684H126.538C126.487 48.3613 126.347 48.5986 126.116 48.7803C125.886 48.9619 125.602 49.0527 125.264 49.0527C124.838 49.0527 124.498 48.9111 124.244 48.6279C123.99 48.3428 123.863 47.959 123.863 47.4766C123.863 47.002 123.99 46.6211 124.244 46.334C124.498 46.0449 124.836 45.9004 125.258 45.9004C125.607 45.9004 125.895 45.9961 126.119 46.1875C126.346 46.3789 126.483 46.6133 126.532 46.8906ZM128.293 46.3428C128.057 46.3428 127.86 46.4248 127.704 46.5889C127.55 46.751 127.465 46.96 127.449 47.2158H129.104C129.099 46.958 129.021 46.748 128.873 46.5859C128.725 46.4238 128.531 46.3428 128.293 46.3428ZM129.093 48.127H129.594C129.549 48.3965 129.408 48.6182 129.172 48.792C128.938 48.9658 128.655 49.0527 128.325 49.0527C127.89 49.0527 127.547 48.9121 127.297 48.6309C127.047 48.3496 126.922 47.9688 126.922 47.4883C126.922 47.0117 127.047 46.6279 127.297 46.3369C127.549 46.0459 127.884 45.9004 128.302 45.9004C128.712 45.9004 129.036 46.0381 129.274 46.3135C129.513 46.5889 129.632 46.958 129.632 47.4209V47.6143H127.446V47.6436C127.446 47.9365 127.526 48.1709 127.687 48.3467C127.847 48.5225 128.063 48.6104 128.337 48.6104C128.528 48.6104 128.691 48.5664 128.826 48.4785C128.961 48.3906 129.05 48.2734 129.093 48.127ZM132.157 46.3721H130.701V49H130.197V45.9531H132.157V46.3721ZM133.859 49.0527C133.434 49.0527 133.092 48.9111 132.834 48.6279C132.576 48.3428 132.447 47.959 132.447 47.4766C132.447 46.9941 132.576 46.6113 132.834 46.3281C133.092 46.043 133.434 45.9004 133.859 45.9004C134.283 45.9004 134.624 46.043 134.882 46.3281C135.14 46.6113 135.269 46.9941 135.269 47.4766C135.269 47.957 135.14 48.3398 134.882 48.625C134.624 48.9102 134.283 49.0527 133.859 49.0527ZM133.206 48.3057C133.368 48.5049 133.586 48.6045 133.859 48.6045C134.133 48.6045 134.35 48.5059 134.51 48.3086C134.67 48.1094 134.75 47.832 134.75 47.4766C134.75 47.1211 134.67 46.8447 134.51 46.6475C134.35 46.4482 134.133 46.3486 133.859 46.3486C133.586 46.3486 133.368 46.4482 133.206 46.6475C133.046 46.8467 132.966 47.123 132.966 47.4766C132.966 47.8301 133.046 48.1064 133.206 48.3057ZM137.797 48.5811V46.3721H136.654L136.561 47.6553C136.531 48.0732 136.448 48.374 136.312 48.5576V48.5811H137.797ZM135.948 49.8057H135.474V48.5811H135.729C135.934 48.4463 136.054 48.1338 136.089 47.6436L136.206 45.9531H138.304V48.5811H138.787V49.8057H138.312V49H135.948V49.8057ZM141.251 49V47.6289H139.748V49H139.244V45.9531H139.748V47.21H141.251V45.9531H141.755V49H141.251ZM143.568 47.4971H144.151V46.3721H143.568C143.369 46.3721 143.211 46.4238 143.094 46.5273C142.979 46.6309 142.921 46.7734 142.921 46.9551C142.921 47.1152 142.979 47.2461 143.097 47.3477C143.216 47.4473 143.373 47.4971 143.568 47.4971ZM144.151 49V47.916H143.612L142.839 49H142.256L143.105 47.8223C142.889 47.7598 142.719 47.6533 142.596 47.5029C142.475 47.3525 142.414 47.1729 142.414 46.9639C142.414 46.6514 142.518 46.4053 142.725 46.2256C142.934 46.0439 143.214 45.9531 143.565 45.9531H144.655V49H144.151ZM147.837 46.3662H147.107V47.2188H147.761C148.14 47.2188 148.329 47.0742 148.329 46.7852C148.329 46.6504 148.287 46.5469 148.203 46.4746C148.119 46.4023 147.997 46.3662 147.837 46.3662ZM147.802 47.6289H147.107V48.5869H147.893C148.076 48.5869 148.217 48.5469 148.314 48.4668C148.412 48.3848 148.461 48.2666 148.461 48.1123C148.461 47.79 148.241 47.6289 147.802 47.6289ZM146.604 49V45.9531H147.907C148.192 45.9531 148.417 46.0225 148.581 46.1611C148.745 46.2998 148.827 46.4902 148.827 46.7324C148.827 46.8867 148.778 47.0273 148.681 47.1543C148.585 47.2812 148.467 47.3594 148.326 47.3887V47.4121C148.518 47.4395 148.671 47.5176 148.786 47.6465C148.903 47.7754 148.962 47.9346 148.962 48.124C148.962 48.3936 148.868 48.6074 148.681 48.7656C148.495 48.9219 148.24 49 147.916 49H146.604ZM151.839 49V45.332H151.827L150.708 46.1377V45.5811L151.833 44.7725H152.349V49H151.839ZM154.499 49V45.332H154.487L153.368 46.1377V45.5811L154.493 44.7725H155.009V49H154.499ZM156.737 48.2002C156.673 48.2646 156.594 48.2969 156.5 48.2969C156.406 48.2969 156.327 48.2646 156.263 48.2002C156.198 48.1357 156.166 48.0566 156.166 47.9629C156.166 47.8691 156.198 47.79 156.263 47.7256C156.327 47.6611 156.406 47.6289 156.5 47.6289C156.594 47.6289 156.673 47.6611 156.737 47.7256C156.802 47.79 156.834 47.8691 156.834 47.9629C156.834 48.0566 156.802 48.1357 156.737 48.2002ZM156.737 46.0439C156.673 46.1084 156.594 46.1406 156.5 46.1406C156.406 46.1406 156.327 46.1084 156.263 46.0439C156.198 45.9795 156.166 45.9004 156.166 45.8066C156.166 45.7129 156.198 45.6338 156.263 45.5693C156.327 45.5049 156.406 45.4727 156.5 45.4727C156.594 45.4727 156.673 45.5049 156.737 45.5693C156.802 45.6338 156.834 45.7129 156.834 45.8066C156.834 45.9004 156.802 45.9795 156.737 46.0439ZM158.466 47.0488V46.6035H158.973C159.215 46.6035 159.413 46.5342 159.567 46.3955C159.722 46.2549 159.799 46.0771 159.799 45.8623C159.799 45.6475 159.728 45.4766 159.585 45.3496C159.442 45.2227 159.24 45.1592 158.979 45.1592C158.736 45.1592 158.539 45.2236 158.387 45.3525C158.234 45.4814 158.146 45.6572 158.123 45.8799H157.616C157.646 45.5205 157.784 45.2344 158.032 45.0215C158.282 44.8086 158.605 44.7021 159.002 44.7021C159.383 44.7021 159.699 44.8047 159.951 45.0098C160.203 45.2148 160.329 45.4756 160.329 45.792C160.329 46.0557 160.251 46.2773 160.095 46.457C159.938 46.6367 159.728 46.75 159.462 46.7969V46.8086C159.782 46.8281 160.037 46.9307 160.227 47.1162C160.416 47.2998 160.511 47.54 160.511 47.8369C160.511 48.0732 160.444 48.2861 160.312 48.4756C160.179 48.665 159.999 48.8115 159.772 48.915C159.546 49.0186 159.295 49.0703 159.02 49.0703C158.582 49.0703 158.229 48.9609 157.962 48.7422C157.694 48.5234 157.551 48.2363 157.531 47.8809H158.038C158.062 48.1016 158.16 48.2793 158.334 48.4141C158.508 48.5469 158.734 48.6133 159.014 48.6133C159.293 48.6133 159.522 48.542 159.702 48.3994C159.884 48.2568 159.975 48.0752 159.975 47.8545C159.975 47.6064 159.887 47.4102 159.711 47.2656C159.537 47.1211 159.299 47.0488 158.996 47.0488H158.466ZM162.233 49V45.332H162.222L161.103 46.1377V45.5811L162.228 44.7725H162.743V49H162.233Z" fill="black"/>
</g>
<defs>
<clipPath id="clip0">
<rect width="266" height="58" fill="white"/>
</clipPath>
</defs>
</svg>
