<svg width="375" height="58" viewBox="0 0 375 58" fill="none" xmlns="http://www.w3.org/2000/svg">
<rect width="375" height="58" fill="#0C5B55"/>
<rect x="49" y="13" width="31" height="31" rx="15.5" fill="white"/>
<path d="M32 28H19.83L25.42 22.41L24 21L16 29L24 37L25.41 35.59L19.83 30H32V28Z" fill="white"/>
<path d="M315.01 32.38C313.78 32.38 312.59 32.18 311.48 31.82C311.13 31.7 310.74 31.79 310.47 32.06L308.9 34.03C306.07 32.68 303.42 30.13 302.01 27.2L303.96 25.54C304.23 25.26 304.31 24.87 304.2 24.52C303.83 23.41 303.64 22.22 303.64 20.99C303.64 20.45 303.19 20 302.65 20H299.19C298.65 20 298 20.24 298 20.99C298 30.28 305.73 38 315.01 38C315.72 38 316 37.37 316 36.82V33.37C316 32.83 315.55 32.38 315.01 32.38Z" fill="white"/>
<path d="M334 35H352V33H334V35ZM334 30H352V28H334V30ZM334 23V25H352V23H334Z" fill="white"/>
<path d="M96.2988 29L95.6543 26.9492H92.6836L92.0391 29H90.2227L93.1582 20.5449H95.2383L98.1797 29H96.2988ZM94.1484 22.1621L93.0645 25.625H95.2734L94.1895 22.1621H94.1484ZM103.137 29V26.4277H100.723V29H99.0176V22.7188H100.723V25.1328H103.137V22.7188H104.842V29H103.137ZM111.164 22.7188V24.0078H109.295V29H107.59V24.0078H105.715V22.7188H111.164ZM117.076 28.2676C116.518 28.8457 115.76 29.1348 114.803 29.1348C113.846 29.1348 113.088 28.8438 112.529 28.2617C111.971 27.6797 111.691 26.877 111.691 25.8535C111.691 24.8418 111.973 24.0449 112.535 23.4629C113.102 22.877 113.857 22.584 114.803 22.584C115.752 22.584 116.508 22.877 117.07 23.4629C117.633 24.0449 117.914 24.8418 117.914 25.8535C117.914 26.8809 117.635 27.6855 117.076 28.2676ZM114.803 27.8281C115.225 27.8281 115.559 27.6562 115.805 27.3125C116.051 26.9688 116.174 26.4844 116.174 25.8594C116.174 25.2422 116.051 24.7598 115.805 24.4121C115.559 24.0645 115.225 23.8906 114.803 23.8906C114.381 23.8906 114.045 24.0645 113.795 24.4121C113.549 24.7598 113.426 25.2422 113.426 25.8594C113.426 26.4844 113.549 26.9688 113.795 27.3125C114.041 27.6562 114.377 27.8281 114.803 27.8281ZM121.336 26.8203H121.301L120.123 29H118.324L120.293 25.8711L118.336 22.7188H120.264L121.395 24.8398H121.43L122.543 22.7188H124.406L122.443 25.8242L124.389 29H122.531L121.336 26.8203ZM127.564 27.8633C127.943 27.8633 128.264 27.7539 128.525 27.5352C128.791 27.3125 128.924 27.0332 128.924 26.6973V26.2402L127.6 26.3223C127.279 26.3457 127.031 26.4258 126.855 26.5625C126.684 26.6992 126.598 26.8789 126.598 27.1016C126.598 27.3359 126.686 27.5215 126.861 27.6582C127.037 27.7949 127.271 27.8633 127.564 27.8633ZM127.002 29.0996C126.396 29.0996 125.895 28.9219 125.496 28.5664C125.098 28.2109 124.898 27.7539 124.898 27.1953C124.898 26.625 125.109 26.1777 125.531 25.8535C125.953 25.5293 126.557 25.3438 127.342 25.2969L128.924 25.2031V24.7871C128.924 24.498 128.828 24.2715 128.637 24.1074C128.449 23.9434 128.193 23.8613 127.869 23.8613C127.557 23.8613 127.301 23.9316 127.102 24.0723C126.906 24.2129 126.787 24.4023 126.744 24.6406H125.18C125.211 24.0234 125.475 23.5273 125.971 23.1523C126.467 22.7734 127.125 22.584 127.945 22.584C128.75 22.584 129.395 22.7754 129.879 23.1582C130.363 23.541 130.605 24.0488 130.605 24.6816V29H128.953V28.0391H128.918C128.746 28.3672 128.484 28.627 128.133 28.8184C127.781 29.0059 127.404 29.0996 127.002 29.0996Z" fill="white"/>
<path d="M91.6641 39.0527C91.1953 39.0527 90.8398 38.8975 90.5977 38.5869C90.3574 38.2764 90.2373 37.8193 90.2373 37.2158C90.2373 36.3701 90.3613 35.7598 90.6094 35.3848C90.8594 35.0098 91.2783 34.8115 91.8662 34.79L92.0918 34.7812C92.4473 34.7637 92.7119 34.709 92.8857 34.6172V35.0625C92.8369 35.1074 92.7402 35.1465 92.5957 35.1797C92.4512 35.2129 92.291 35.2334 92.1152 35.2412L91.8896 35.25C91.6768 35.2578 91.499 35.2871 91.3564 35.3379C91.2158 35.3887 91.0986 35.4697 91.0049 35.5811C90.9131 35.6924 90.8418 35.8252 90.791 35.9795C90.7402 36.1318 90.6992 36.3271 90.668 36.5654H90.6914C90.7891 36.3877 90.9287 36.252 91.1104 36.1582C91.2939 36.0645 91.5039 36.0176 91.7402 36.0176C92.1523 36.0176 92.4795 36.1523 92.7217 36.4219C92.9658 36.6895 93.0879 37.0508 93.0879 37.5059C93.0879 37.9844 92.9609 38.3623 92.707 38.6396C92.4531 38.915 92.1055 39.0527 91.6641 39.0527ZM90.9961 38.3174C91.1543 38.5068 91.377 38.6016 91.6641 38.6016C91.9512 38.6016 92.1729 38.5068 92.3291 38.3174C92.4873 38.126 92.5664 37.8555 92.5664 37.5059C92.5664 37.1738 92.4873 36.917 92.3291 36.7354C92.1729 36.5537 91.9512 36.4629 91.6641 36.4629C91.377 36.4629 91.1543 36.5537 90.9961 36.7354C90.8379 36.917 90.7588 37.1738 90.7588 37.5059C90.7588 37.8555 90.8379 38.126 90.9961 38.3174ZM96.2637 39V35.9531H96.7676V39H96.2637ZM94.7285 37.3447H94.1602V38.5811H94.7285C94.9258 38.5811 95.083 38.5244 95.2002 38.4111C95.3193 38.2979 95.3789 38.1484 95.3789 37.9629C95.3789 37.7754 95.3193 37.626 95.2002 37.5146C95.083 37.4014 94.9258 37.3447 94.7285 37.3447ZM93.6562 39V35.9531H94.1602V36.9258H94.7373C95.0869 36.9258 95.3652 37.0195 95.5723 37.207C95.7793 37.3945 95.8828 37.6465 95.8828 37.9629C95.8828 38.2793 95.7793 38.5312 95.5723 38.7188C95.3652 38.9062 95.0869 39 94.7373 39H93.6562ZM98.2969 37.6553C98.2832 37.8311 98.2637 37.9863 98.2383 38.1211C98.2148 38.2559 98.1807 38.3818 98.1357 38.499C98.0908 38.6162 98.0352 38.7129 97.9688 38.7891C97.9043 38.8633 97.8232 38.9219 97.7256 38.9648C97.6299 39.0059 97.5186 39.0264 97.3916 39.0264C97.3213 39.0264 97.2607 39.0156 97.21 38.9941V38.5342C97.2568 38.5498 97.3086 38.5576 97.3652 38.5576C97.5078 38.5576 97.6143 38.4805 97.6846 38.3262C97.7549 38.1699 97.7998 37.9424 97.8193 37.6436L97.9365 35.9531H99.9316V39H99.4277V36.3721H98.3906L98.2969 37.6553ZM101.684 39.8994C101.129 39.1943 100.852 38.3398 100.852 37.3359C100.852 36.332 101.129 35.4775 101.684 34.7725H102.111C101.902 35.0146 101.727 35.3828 101.584 35.877C101.441 36.3711 101.37 36.8574 101.37 37.3359C101.37 37.8145 101.441 38.3008 101.584 38.7949C101.727 39.2891 101.902 39.6572 102.111 39.8994H101.684ZM104.476 37.5234H102.554V37.0488H104.476V37.5234ZM106.166 38.6191C106.406 38.6191 106.607 38.5449 106.77 38.3965C106.934 38.2461 107.016 38.0615 107.016 37.8428V37.5938L106.201 37.6436C105.996 37.6572 105.837 37.707 105.724 37.793C105.612 37.8789 105.557 37.9941 105.557 38.1387C105.557 38.2832 105.612 38.3994 105.724 38.4873C105.835 38.5752 105.982 38.6191 106.166 38.6191ZM106.052 39.0527C105.749 39.0527 105.504 38.9688 105.316 38.8008C105.131 38.6328 105.038 38.4121 105.038 38.1387C105.038 37.877 105.134 37.668 105.325 37.5117C105.519 37.3555 105.791 37.2676 106.143 37.248L107.016 37.1982V36.9434C107.016 36.7578 106.957 36.6123 106.84 36.5068C106.723 36.4014 106.559 36.3486 106.348 36.3486C106.154 36.3486 105.997 36.3916 105.876 36.4775C105.755 36.5615 105.678 36.6797 105.645 36.832H105.152C105.17 36.5605 105.287 36.3379 105.504 36.1641C105.723 35.9883 106.008 35.9004 106.359 35.9004C106.717 35.9004 107 35.9902 107.209 36.1699C107.42 36.3496 107.525 36.5908 107.525 36.8936V39H107.042V38.4756H107.03C106.938 38.6494 106.804 38.7891 106.626 38.8945C106.448 39 106.257 39.0527 106.052 39.0527ZM109.175 36.4512C109.224 36.7227 109.248 37.0176 109.248 37.3359C109.248 37.6543 109.224 37.9502 109.175 38.2236C109.128 38.4951 109.061 38.7354 108.973 38.9443C108.885 39.1533 108.798 39.3281 108.712 39.4688C108.628 39.6113 108.529 39.7549 108.416 39.8994H107.988C108.061 39.8154 108.136 39.6992 108.214 39.5508C108.294 39.4043 108.374 39.2236 108.454 39.0088C108.534 38.7959 108.6 38.542 108.65 38.2471C108.703 37.9521 108.729 37.6484 108.729 37.3359C108.729 37.0234 108.703 36.7197 108.65 36.4248C108.6 36.1279 108.533 35.873 108.451 35.6602C108.371 35.4473 108.292 35.2676 108.214 35.1211C108.136 34.9727 108.061 34.8564 107.988 34.7725H108.416C108.529 34.917 108.628 35.0605 108.712 35.2031C108.798 35.3438 108.885 35.5186 108.973 35.7275C109.061 35.9365 109.128 36.1777 109.175 36.4512ZM113.915 36.8906H113.411C113.364 36.7324 113.275 36.6025 113.145 36.501C113.014 36.3994 112.847 36.3486 112.644 36.3486C112.378 36.3486 112.165 36.4521 112.005 36.6592C111.845 36.8643 111.765 37.1367 111.765 37.4766C111.765 37.8223 111.845 38.0967 112.005 38.2998C112.167 38.5029 112.382 38.6045 112.649 38.6045C112.849 38.6045 113.014 38.5576 113.145 38.4639C113.277 38.3701 113.368 38.2383 113.417 38.0684H113.921C113.87 38.3613 113.729 38.5986 113.499 38.7803C113.269 38.9619 112.984 39.0527 112.646 39.0527C112.221 39.0527 111.881 38.9111 111.627 38.6279C111.373 38.3428 111.246 37.959 111.246 37.4766C111.246 37.002 111.373 36.6211 111.627 36.334C111.881 36.0449 112.219 35.9004 112.641 35.9004C112.99 35.9004 113.277 35.9961 113.502 36.1875C113.729 36.3789 113.866 36.6133 113.915 36.8906ZM115.676 36.3428C115.439 36.3428 115.243 36.4248 115.087 36.5889C114.933 36.751 114.848 36.96 114.832 37.2158H116.487C116.481 36.958 116.404 36.748 116.256 36.5859C116.107 36.4238 115.914 36.3428 115.676 36.3428ZM116.476 38.127H116.977C116.932 38.3965 116.791 38.6182 116.555 38.792C116.32 38.9658 116.038 39.0527 115.708 39.0527C115.272 39.0527 114.93 38.9121 114.68 38.6309C114.43 38.3496 114.305 37.9688 114.305 37.4883C114.305 37.0117 114.43 36.6279 114.68 36.3369C114.932 36.0459 115.267 35.9004 115.685 35.9004C116.095 35.9004 116.419 36.0381 116.657 36.3135C116.896 36.5889 117.015 36.958 117.015 37.4209V37.6143H114.829V37.6436C114.829 37.9365 114.909 38.1709 115.069 38.3467C115.229 38.5225 115.446 38.6104 115.72 38.6104C115.911 38.6104 116.074 38.5664 116.209 38.4785C116.344 38.3906 116.433 38.2734 116.476 38.127ZM119.54 36.3721H118.084V39H117.58V35.9531H119.54V36.3721ZM121.242 39.0527C120.816 39.0527 120.475 38.9111 120.217 38.6279C119.959 38.3428 119.83 37.959 119.83 37.4766C119.83 36.9941 119.959 36.6113 120.217 36.3281C120.475 36.043 120.816 35.9004 121.242 35.9004C121.666 35.9004 122.007 36.043 122.265 36.3281C122.522 36.6113 122.651 36.9941 122.651 37.4766C122.651 37.957 122.522 38.3398 122.265 38.625C122.007 38.9102 121.666 39.0527 121.242 39.0527ZM120.589 38.3057C120.751 38.5049 120.969 38.6045 121.242 38.6045C121.516 38.6045 121.732 38.5059 121.893 38.3086C122.053 38.1094 122.133 37.832 122.133 37.4766C122.133 37.1211 122.053 36.8447 121.893 36.6475C121.732 36.4482 121.516 36.3486 121.242 36.3486C120.969 36.3486 120.751 36.4482 120.589 36.6475C120.429 36.8467 120.349 37.123 120.349 37.4766C120.349 37.8301 120.429 38.1064 120.589 38.3057ZM125.18 38.5811V36.3721H124.037L123.943 37.6553C123.914 38.0732 123.831 38.374 123.694 38.5576V38.5811H125.18ZM123.331 39.8057H122.856V38.5811H123.111C123.316 38.4463 123.437 38.1338 123.472 37.6436L123.589 35.9531H125.687V38.5811H126.17V39.8057H125.695V39H123.331V39.8057ZM128.634 39V37.6289H127.131V39H126.627V35.9531H127.131V37.21H128.634V35.9531H129.138V39H128.634ZM130.951 37.4971H131.534V36.3721H130.951C130.752 36.3721 130.594 36.4238 130.477 36.5273C130.361 36.6309 130.304 36.7734 130.304 36.9551C130.304 37.1152 130.362 37.2461 130.479 37.3477C130.599 37.4473 130.756 37.4971 130.951 37.4971ZM131.534 39V37.916H130.995L130.222 39H129.639L130.488 37.8223C130.271 37.7598 130.102 37.6533 129.979 37.5029C129.857 37.3525 129.797 37.1729 129.797 36.9639C129.797 36.6514 129.9 36.4053 130.107 36.2256C130.316 36.0439 130.597 35.9531 130.948 35.9531H132.038V39H131.534ZM135.22 36.3662H134.49V37.2188H135.144C135.522 37.2188 135.712 37.0742 135.712 36.7852C135.712 36.6504 135.67 36.5469 135.586 36.4746C135.502 36.4023 135.38 36.3662 135.22 36.3662ZM135.185 37.6289H134.49V38.5869H135.275C135.459 38.5869 135.6 38.5469 135.697 38.4668C135.795 38.3848 135.844 38.2666 135.844 38.1123C135.844 37.79 135.624 37.6289 135.185 37.6289ZM133.986 39V35.9531H135.29C135.575 35.9531 135.8 36.0225 135.964 36.1611C136.128 36.2998 136.21 36.4902 136.21 36.7324C136.21 36.8867 136.161 37.0273 136.063 37.1543C135.968 37.2812 135.85 37.3594 135.709 37.3887V37.4121C135.9 37.4395 136.054 37.5176 136.169 37.6465C136.286 37.7754 136.345 37.9346 136.345 38.124C136.345 38.3936 136.251 38.6074 136.063 38.7656C135.878 38.9219 135.623 39 135.299 39H133.986ZM139.222 39V35.332H139.21L138.091 36.1377V35.5811L139.216 34.7725H139.731V39H139.222ZM141.882 39V35.332H141.87L140.751 36.1377V35.5811L141.876 34.7725H142.392V39H141.882ZM144.12 38.2002C144.056 38.2646 143.977 38.2969 143.883 38.2969C143.789 38.2969 143.71 38.2646 143.646 38.2002C143.581 38.1357 143.549 38.0566 143.549 37.9629C143.549 37.8691 143.581 37.79 143.646 37.7256C143.71 37.6611 143.789 37.6289 143.883 37.6289C143.977 37.6289 144.056 37.6611 144.12 37.7256C144.185 37.79 144.217 37.8691 144.217 37.9629C144.217 38.0566 144.185 38.1357 144.12 38.2002ZM144.12 36.0439C144.056 36.1084 143.977 36.1406 143.883 36.1406C143.789 36.1406 143.71 36.1084 143.646 36.0439C143.581 35.9795 143.549 35.9004 143.549 35.8066C143.549 35.7129 143.581 35.6338 143.646 35.5693C143.71 35.5049 143.789 35.4727 143.883 35.4727C143.977 35.4727 144.056 35.5049 144.12 35.5693C144.185 35.6338 144.217 35.7129 144.217 35.8066C144.217 35.9004 144.185 35.9795 144.12 36.0439ZM145.849 37.0488V36.6035H146.355C146.598 36.6035 146.796 36.5342 146.95 36.3955C147.104 36.2549 147.182 36.0771 147.182 35.8623C147.182 35.6475 147.11 35.4766 146.968 35.3496C146.825 35.2227 146.623 35.1592 146.361 35.1592C146.119 35.1592 145.922 35.2236 145.77 35.3525C145.617 35.4814 145.529 35.6572 145.506 35.8799H144.999C145.028 35.5205 145.167 35.2344 145.415 35.0215C145.665 34.8086 145.988 34.7021 146.385 34.7021C146.766 34.7021 147.082 34.8047 147.334 35.0098C147.586 35.2148 147.712 35.4756 147.712 35.792C147.712 36.0557 147.634 36.2773 147.478 36.457C147.321 36.6367 147.11 36.75 146.845 36.7969V36.8086C147.165 36.8281 147.42 36.9307 147.609 37.1162C147.799 37.2998 147.894 37.54 147.894 37.8369C147.894 38.0732 147.827 38.2861 147.694 38.4756C147.562 38.665 147.382 38.8115 147.155 38.915C146.929 39.0186 146.678 39.0703 146.402 39.0703C145.965 39.0703 145.612 38.9609 145.345 38.7422C145.077 38.5234 144.934 38.2363 144.914 37.8809H145.421C145.444 38.1016 145.543 38.2793 145.717 38.4141C145.891 38.5469 146.117 38.6133 146.396 38.6133C146.676 38.6133 146.905 38.542 147.085 38.3994C147.267 38.2568 147.357 38.0752 147.357 37.8545C147.357 37.6064 147.27 37.4102 147.094 37.2656C146.92 37.1211 146.682 37.0488 146.379 37.0488H145.849ZM149.616 39V35.332H149.604L148.485 36.1377V35.5811L149.61 34.7725H150.126V39H149.616Z" fill="white"/>
<rect x="71.5" y="35.5" width="8" height="8" rx="4" fill="#C4C4C4" stroke="#0C5B55"/>
</svg>
