<svg width="375" height="58" viewBox="0 0 375 58" fill="none" xmlns="http://www.w3.org/2000/svg">
<rect width="375" height="58" fill="white"/>
<rect x="323" y="13" width="31" height="31" rx="15.5" fill="#DBDBDB"/>
<path d="M32 28H19.83L25.42 22.41L24 21L16 29L24 37L25.41 35.59L19.83 30H32V28Z" fill="#1C56B2"/>
<path d="M172.299 29L171.654 26.9492H168.684L168.039 29H166.223L169.158 20.5449H171.238L174.18 29H172.299ZM170.148 22.1621L169.064 25.625H171.273L170.189 22.1621H170.148ZM179.137 29V26.4277H176.723V29H175.018V22.7188H176.723V25.1328H179.137V22.7188H180.842V29H179.137ZM187.164 22.7188V24.0078H185.295V29H183.59V24.0078H181.715V22.7188H187.164ZM193.076 28.2676C192.518 28.8457 191.76 29.1348 190.803 29.1348C189.846 29.1348 189.088 28.8438 188.529 28.2617C187.971 27.6797 187.691 26.877 187.691 25.8535C187.691 24.8418 187.973 24.0449 188.535 23.4629C189.102 22.877 189.857 22.584 190.803 22.584C191.752 22.584 192.508 22.877 193.07 23.4629C193.633 24.0449 193.914 24.8418 193.914 25.8535C193.914 26.8809 193.635 27.6855 193.076 28.2676ZM190.803 27.8281C191.225 27.8281 191.559 27.6562 191.805 27.3125C192.051 26.9688 192.174 26.4844 192.174 25.8594C192.174 25.2422 192.051 24.7598 191.805 24.4121C191.559 24.0645 191.225 23.8906 190.803 23.8906C190.381 23.8906 190.045 24.0645 189.795 24.4121C189.549 24.7598 189.426 25.2422 189.426 25.8594C189.426 26.4844 189.549 26.9688 189.795 27.3125C190.041 27.6562 190.377 27.8281 190.803 27.8281ZM197.336 26.8203H197.301L196.123 29H194.324L196.293 25.8711L194.336 22.7188H196.264L197.395 24.8398H197.43L198.543 22.7188H200.406L198.443 25.8242L200.389 29H198.531L197.336 26.8203ZM203.564 27.8633C203.943 27.8633 204.264 27.7539 204.525 27.5352C204.791 27.3125 204.924 27.0332 204.924 26.6973V26.2402L203.6 26.3223C203.279 26.3457 203.031 26.4258 202.855 26.5625C202.684 26.6992 202.598 26.8789 202.598 27.1016C202.598 27.3359 202.686 27.5215 202.861 27.6582C203.037 27.7949 203.271 27.8633 203.564 27.8633ZM203.002 29.0996C202.396 29.0996 201.895 28.9219 201.496 28.5664C201.098 28.2109 200.898 27.7539 200.898 27.1953C200.898 26.625 201.109 26.1777 201.531 25.8535C201.953 25.5293 202.557 25.3438 203.342 25.2969L204.924 25.2031V24.7871C204.924 24.498 204.828 24.2715 204.637 24.1074C204.449 23.9434 204.193 23.8613 203.869 23.8613C203.557 23.8613 203.301 23.9316 203.102 24.0723C202.906 24.2129 202.787 24.4023 202.744 24.6406H201.18C201.211 24.0234 201.475 23.5273 201.971 23.1523C202.467 22.7734 203.125 22.584 203.945 22.584C204.75 22.584 205.395 22.7754 205.879 23.1582C206.363 23.541 206.605 24.0488 206.605 24.6816V29H204.953V28.0391H204.918C204.746 28.3672 204.484 28.627 204.133 28.8184C203.781 29.0059 203.404 29.0996 203.002 29.0996Z" fill="black"/>
<path d="M178.715 40H176.586V34.3633H178.723C179.204 34.3633 179.594 34.4922 179.891 34.75C180.19 35.0078 180.34 35.3477 180.34 35.7695C180.34 36.0638 180.245 36.3307 180.055 36.5703C179.867 36.8073 179.638 36.9505 179.367 37V37.0312C179.75 37.0807 180.055 37.2305 180.281 37.4805C180.51 37.7305 180.625 38.043 180.625 38.418C180.625 38.9154 180.456 39.3034 180.117 39.582C179.781 39.8607 179.314 40 178.715 40ZM177.289 34.9844V36.793H178.344C178.76 36.793 179.078 36.7122 179.297 36.5508C179.518 36.3893 179.629 36.1562 179.629 35.8516C179.629 35.5729 179.536 35.3594 179.352 35.2109C179.167 35.0599 178.904 34.9844 178.562 34.9844H177.289ZM177.289 39.3789H178.609C179.034 39.3789 179.355 39.2943 179.574 39.125C179.793 38.9557 179.902 38.7083 179.902 38.3828C179.902 37.7266 179.449 37.3984 178.543 37.3984H177.289V39.3789ZM186.395 37.1875H185.723C185.66 36.9766 185.542 36.8034 185.367 36.668C185.193 36.5326 184.97 36.4648 184.699 36.4648C184.345 36.4648 184.061 36.6029 183.848 36.8789C183.634 37.1523 183.527 37.5156 183.527 37.9688C183.527 38.4297 183.634 38.7956 183.848 39.0664C184.064 39.3372 184.35 39.4727 184.707 39.4727C184.973 39.4727 185.193 39.4102 185.367 39.2852C185.544 39.1602 185.665 38.9844 185.73 38.7578H186.402C186.335 39.1484 186.147 39.4648 185.84 39.707C185.533 39.9492 185.154 40.0703 184.703 40.0703C184.135 40.0703 183.682 39.8815 183.344 39.5039C183.005 39.1237 182.836 38.612 182.836 37.9688C182.836 37.3359 183.005 36.8281 183.344 36.4453C183.682 36.0599 184.133 35.8672 184.695 35.8672C185.161 35.8672 185.544 35.9948 185.844 36.25C186.146 36.5052 186.329 36.8177 186.395 37.1875ZM188.742 36.457C188.427 36.457 188.165 36.5664 187.957 36.7852C187.751 37.0013 187.638 37.2799 187.617 37.6211H189.824C189.816 37.2773 189.714 36.9974 189.516 36.7812C189.318 36.5651 189.06 36.457 188.742 36.457ZM189.809 38.8359H190.477C190.417 39.1953 190.229 39.4909 189.914 39.7227C189.602 39.9544 189.225 40.0703 188.785 40.0703C188.204 40.0703 187.747 39.8828 187.414 39.5078C187.081 39.1328 186.914 38.625 186.914 37.9844C186.914 37.349 187.081 36.8372 187.414 36.4492C187.75 36.0612 188.197 35.8672 188.754 35.8672C189.301 35.8672 189.733 36.0508 190.051 36.418C190.368 36.7852 190.527 37.2773 190.527 37.8945V38.1523H187.613V38.1914C187.613 38.582 187.72 38.8945 187.934 39.1289C188.147 39.3633 188.436 39.4805 188.801 39.4805C189.056 39.4805 189.273 39.4219 189.453 39.3047C189.633 39.1875 189.751 39.0312 189.809 38.8359ZM194.098 35.9375V36.4961H192.785V40H192.113V36.4961H190.801V35.9375H194.098ZM195.398 40H194.727V35.9375H195.398V38.9609H195.43L197.461 35.9375H198.133V40H197.461V36.9766H197.43L195.398 40Z" fill="black"/>
</svg>
