<svg width="266" height="58" viewBox="0 0 266 58" fill="none" xmlns="http://www.w3.org/2000/svg">
<g clip-path="url(#clip0)">
<rect width="266" height="58" fill="black"/>
<mask id="mask0" mask-type="alpha" maskUnits="userSpaceOnUse" x="0" y="0" width="266" height="2195">
<path d="M0 28.0001C0 12.5361 12.536 0 28 0H52.4474C55.7901 0 58.5 2.70986 58.5 6.05263V6.05263C58.5 15.4124 66.0876 23 75.4474 23H190.553C199.912 23 207.5 15.4124 207.5 6.05263V6.05263C207.5 2.70986 210.21 0 213.553 0H238C253.464 0 266 12.536 266 28V2167C266 2182.46 253.464 2195 238 2195H28C12.536 2195 0 2182.46 0 2167V28.0001Z" fill="white"/>
</mask>
<g mask="url(#mask0)">
<rect width="266" height="58" fill="white"/>
</g>
<rect x="233" y="30" width="21" height="21" rx="10.5" fill="#DBDBDB"/>
<path d="M32 40H19.83L25.42 34.41L24 33L16 41L24 49L25.41 47.59L19.83 42H32V40Z" fill="#1C56B2"/>
<path d="M120.249 41L119.712 39.291H117.236L116.699 41H115.186L117.632 33.9541H119.365L121.816 41H120.249ZM118.457 35.3018L117.554 38.1875H119.395L118.491 35.3018H118.457ZM125.947 41V38.8564H123.936V41H122.515V35.7656H123.936V37.7773H125.947V35.7656H127.368V41H125.947ZM132.637 35.7656V36.8398H131.079V41H129.658V36.8398H128.096V35.7656H132.637ZM137.563 40.3896C137.098 40.8714 136.466 41.1123 135.669 41.1123C134.871 41.1123 134.24 40.8698 133.774 40.3848C133.309 39.8997 133.076 39.2308 133.076 38.3779C133.076 37.5348 133.311 36.8708 133.779 36.3857C134.251 35.8975 134.881 35.6533 135.669 35.6533C136.46 35.6533 137.09 35.8975 137.559 36.3857C138.027 36.8708 138.262 37.5348 138.262 38.3779C138.262 39.234 138.029 39.9046 137.563 40.3896ZM135.669 40.0234C136.021 40.0234 136.299 39.8802 136.504 39.5938C136.709 39.3073 136.812 38.9036 136.812 38.3828C136.812 37.8685 136.709 37.4665 136.504 37.1768C136.299 36.887 136.021 36.7422 135.669 36.7422C135.317 36.7422 135.037 36.887 134.829 37.1768C134.624 37.4665 134.521 37.8685 134.521 38.3828C134.521 38.9036 134.624 39.3073 134.829 39.5938C135.034 39.8802 135.314 40.0234 135.669 40.0234ZM141.113 39.1836H141.084L140.103 41H138.604L140.244 38.3926L138.613 35.7656H140.22L141.162 37.5332H141.191L142.119 35.7656H143.672L142.036 38.3535L143.657 41H142.109L141.113 39.1836ZM146.304 40.0527C146.619 40.0527 146.886 39.9616 147.104 39.7793C147.326 39.5938 147.437 39.361 147.437 39.0811V38.7002L146.333 38.7686C146.066 38.7881 145.859 38.8548 145.713 38.9688C145.57 39.0827 145.498 39.2324 145.498 39.418C145.498 39.6133 145.571 39.7679 145.718 39.8818C145.864 39.9958 146.06 40.0527 146.304 40.0527ZM145.835 41.083C145.33 41.083 144.912 40.9349 144.58 40.6387C144.248 40.3424 144.082 39.9616 144.082 39.4961C144.082 39.0208 144.258 38.6481 144.609 38.3779C144.961 38.1077 145.464 37.9531 146.118 37.9141L147.437 37.8359V37.4893C147.437 37.2484 147.357 37.0596 147.197 36.9229C147.041 36.7861 146.828 36.7178 146.558 36.7178C146.297 36.7178 146.084 36.7764 145.918 36.8936C145.755 37.0107 145.656 37.1686 145.62 37.3672H144.316C144.342 36.8529 144.562 36.4395 144.976 36.127C145.389 35.8112 145.938 35.6533 146.621 35.6533C147.292 35.6533 147.829 35.8128 148.232 36.1318C148.636 36.4508 148.838 36.874 148.838 37.4014V41H147.461V40.1992H147.432C147.288 40.4727 147.07 40.6891 146.777 40.8486C146.484 41.0049 146.17 41.083 145.835 41.083Z" fill="black"/>
<path d="M118.331 47.7314C118.331 48.1045 118.204 48.4092 117.95 48.6455C117.698 48.8818 117.374 49 116.978 49H115.439V44.7725H117.909V45.2471H115.967V46.457H116.972C117.37 46.457 117.696 46.5762 117.95 46.8145C118.204 47.0508 118.331 47.3564 118.331 47.7314ZM115.967 48.5254H116.84C117.143 48.5254 117.376 48.457 117.54 48.3203C117.706 48.1816 117.789 47.9854 117.789 47.7314C117.789 47.4756 117.706 47.2783 117.54 47.1396C117.376 47.001 117.143 46.9316 116.84 46.9316H115.967V48.5254ZM121.65 49V45.9531H122.154V49H121.65ZM120.115 47.3447H119.547V48.5811H120.115C120.312 48.5811 120.47 48.5244 120.587 48.4111C120.706 48.2979 120.766 48.1484 120.766 47.9629C120.766 47.7754 120.706 47.626 120.587 47.5146C120.47 47.4014 120.312 47.3447 120.115 47.3447ZM119.043 49V45.9531H119.547V46.9258H120.124C120.474 46.9258 120.752 47.0195 120.959 47.207C121.166 47.3945 121.27 47.6465 121.27 47.9629C121.27 48.2793 121.166 48.5312 120.959 48.7188C120.752 48.9062 120.474 49 120.124 49H119.043ZM123.684 47.6553C123.67 47.8311 123.65 47.9863 123.625 48.1211C123.602 48.2559 123.567 48.3818 123.522 48.499C123.478 48.6162 123.422 48.7129 123.355 48.7891C123.291 48.8633 123.21 48.9219 123.112 48.9648C123.017 49.0059 122.905 49.0264 122.778 49.0264C122.708 49.0264 122.647 49.0156 122.597 48.9941V48.5342C122.644 48.5498 122.695 48.5576 122.752 48.5576C122.895 48.5576 123.001 48.4805 123.071 48.3262C123.142 48.1699 123.187 47.9424 123.206 47.6436L123.323 45.9531H125.318V49H124.814V46.3721H123.777L123.684 47.6553ZM129.276 49V47.6289H127.773V49H127.27V45.9531H127.773V47.21H129.276V45.9531H129.78V49H129.276ZM131.723 46.3428C131.486 46.3428 131.29 46.4248 131.134 46.5889C130.979 46.751 130.895 46.96 130.879 47.2158H132.534C132.528 46.958 132.451 46.748 132.303 46.5859C132.154 46.4238 131.961 46.3428 131.723 46.3428ZM132.522 48.127H133.023C132.979 48.3965 132.838 48.6182 132.602 48.792C132.367 48.9658 132.085 49.0527 131.755 49.0527C131.319 49.0527 130.977 48.9121 130.727 48.6309C130.477 48.3496 130.352 47.9688 130.352 47.4883C130.352 47.0117 130.477 46.6279 130.727 46.3369C130.979 46.0459 131.313 45.9004 131.731 45.9004C132.142 45.9004 132.466 46.0381 132.704 46.3135C132.942 46.5889 133.062 46.958 133.062 47.4209V47.6143H130.876V47.6436C130.876 47.9365 130.956 48.1709 131.116 48.3467C131.276 48.5225 131.493 48.6104 131.767 48.6104C131.958 48.6104 132.121 48.5664 132.256 48.4785C132.391 48.3906 132.479 48.2734 132.522 48.127ZM135.59 48.5811V46.3721H134.447L134.354 47.6553C134.324 48.0732 134.241 48.374 134.104 48.5576V48.5811H135.59ZM133.741 49.8057H133.267V48.5811H133.521C133.727 48.4463 133.847 48.1338 133.882 47.6436L133.999 45.9531H136.097V48.5811H136.58V49.8057H136.105V49H133.741V49.8057ZM138.045 48.6191C138.285 48.6191 138.486 48.5449 138.648 48.3965C138.812 48.2461 138.895 48.0615 138.895 47.8428V47.5938L138.08 47.6436C137.875 47.6572 137.716 47.707 137.603 47.793C137.491 47.8789 137.436 47.9941 137.436 48.1387C137.436 48.2832 137.491 48.3994 137.603 48.4873C137.714 48.5752 137.861 48.6191 138.045 48.6191ZM137.931 49.0527C137.628 49.0527 137.383 48.9688 137.195 48.8008C137.01 48.6328 136.917 48.4121 136.917 48.1387C136.917 47.877 137.013 47.668 137.204 47.5117C137.397 47.3555 137.67 47.2676 138.021 47.248L138.895 47.1982V46.9434C138.895 46.7578 138.836 46.6123 138.719 46.5068C138.602 46.4014 138.438 46.3486 138.227 46.3486C138.033 46.3486 137.876 46.3916 137.755 46.4775C137.634 46.5615 137.557 46.6797 137.523 46.832H137.031C137.049 46.5605 137.166 46.3379 137.383 46.1641C137.602 45.9883 137.887 45.9004 138.238 45.9004C138.596 45.9004 138.879 45.9902 139.088 46.1699C139.299 46.3496 139.404 46.5908 139.404 46.8936V49H138.921V48.4756H138.909C138.817 48.6494 138.683 48.7891 138.505 48.8945C138.327 49 138.136 49.0527 137.931 49.0527ZM141.341 46.3662H140.611V47.2188H141.265C141.644 47.2188 141.833 47.0742 141.833 46.7852C141.833 46.6504 141.791 46.5469 141.707 46.4746C141.623 46.4023 141.501 46.3662 141.341 46.3662ZM141.306 47.6289H140.611V48.5869H141.396C141.58 48.5869 141.721 48.5469 141.818 48.4668C141.916 48.3848 141.965 48.2666 141.965 48.1123C141.965 47.79 141.745 47.6289 141.306 47.6289ZM140.107 49V45.9531H141.411C141.696 45.9531 141.921 46.0225 142.085 46.1611C142.249 46.2998 142.331 46.4902 142.331 46.7324C142.331 46.8867 142.282 47.0273 142.185 47.1543C142.089 47.2812 141.971 47.3594 141.83 47.3887V47.4121C142.021 47.4395 142.175 47.5176 142.29 47.6465C142.407 47.7754 142.466 47.9346 142.466 48.124C142.466 48.3936 142.372 48.6074 142.185 48.7656C141.999 48.9219 141.744 49 141.42 49H140.107ZM145.056 49V47.6289H143.553V49H143.049V45.9531H143.553V47.21H145.056V45.9531H145.56V49H145.056ZM147.543 49.0527C147.117 49.0527 146.775 48.9111 146.518 48.6279C146.26 48.3428 146.131 47.959 146.131 47.4766C146.131 46.9941 146.26 46.6113 146.518 46.3281C146.775 46.043 147.117 45.9004 147.543 45.9004C147.967 45.9004 148.308 46.043 148.565 46.3281C148.823 46.6113 148.952 46.9941 148.952 47.4766C148.952 47.957 148.823 48.3398 148.565 48.625C148.308 48.9102 147.967 49.0527 147.543 49.0527ZM146.89 48.3057C147.052 48.5049 147.27 48.6045 147.543 48.6045C147.816 48.6045 148.033 48.5059 148.193 48.3086C148.354 48.1094 148.434 47.832 148.434 47.4766C148.434 47.1211 148.354 46.8447 148.193 46.6475C148.033 46.4482 147.816 46.3486 147.543 46.3486C147.27 46.3486 147.052 46.4482 146.89 46.6475C146.729 46.8467 146.649 47.123 146.649 47.4766C146.649 47.8301 146.729 48.1064 146.89 48.3057Z" fill="black"/>
</g>
<defs>
<clipPath id="clip0">
<rect width="266" height="58" fill="white"/>
</clipPath>
</defs>
</svg>
