<svg width="49" height="71" viewBox="0 0 49 71" fill="none" xmlns="http://www.w3.org/2000/svg">
<path d="M48.3536 3.64645C48.5488 3.84171 48.5488 4.15829 48.3536 4.35356L45.1716 7.53554C44.9763 7.7308 44.6597 7.7308 44.4645 7.53554C44.2692 7.34027 44.2692 7.02369 44.4645 6.82843L47.2929 4L44.4645 1.17157C44.2692 0.976313 44.2692 0.65973 44.4645 0.464468C44.6597 0.269206 44.9763 0.269206 45.1716 0.464468L48.3536 3.64645ZM48 4.5C35.2288 4.5 23.6159 11.8787 15.1753 23.911C6.7358 35.9418 1.5 52.5887 1.5 71L0.499997 71C0.499998 52.4082 5.78551 35.5551 14.3567 23.3367C22.9267 11.1198 34.8139 3.5 48 3.5L48 4.5Z" fill="black"/>
</svg>
