<svg width="31" height="29" viewBox="0 0 31 29" fill="none" xmlns="http://www.w3.org/2000/svg">
<path d="M27.3536 28.3536C27.1583 28.5488 26.8417 28.5488 26.6464 28.3536L23.4645 25.1716C23.2692 24.9763 23.2692 24.6597 23.4645 24.4645C23.6597 24.2692 23.9763 24.2692 24.1716 24.4645L27 27.2929L29.8284 24.4645C30.0237 24.2692 30.3403 24.2692 30.5355 24.4645C30.7308 24.6597 30.7308 24.9763 30.5355 25.1716L27.3536 28.3536ZM26.5 28C26.5 21.7385 24.7439 15.111 20.5714 10.0588C16.4121 5.02249 9.80993 1.5 0 1.5V0.5C10.0752 0.5 16.9731 4.13136 21.3424 9.42199C25.6987 14.6967 27.5 21.5692 27.5 28H26.5Z" fill="white"/>
</svg>
