<svg width="85" height="58" viewBox="0 0 85 58" fill="none" xmlns="http://www.w3.org/2000/svg">
<path d="M80.6464 0.64645C80.8417 0.451188 81.1583 0.451188 81.3536 0.64645L84.5355 3.82843C84.7308 4.02369 84.7308 4.34028 84.5355 4.53554C84.3403 4.7308 84.0237 4.7308 83.8284 4.53554L81 1.70711L78.1716 4.53554C77.9763 4.7308 77.6597 4.7308 77.4645 4.53554C77.2692 4.34028 77.2692 4.02369 77.4645 3.82843L80.6464 0.64645ZM81.5 1C81.5 6.75104 80.2323 11.4046 77.9933 15.2061C75.7553 19.0061 72.5639 21.9257 68.7596 24.2364C61.1715 28.8452 51.0829 31.0642 41.0959 33.0161C31.0625 34.9771 21.1424 36.6679 13.7138 40.1811C10.0106 41.9324 6.9625 44.1216 4.8395 46.9922C2.72187 49.8555 1.5 53.4298 1.5 58L0.499998 58C0.499998 53.2376 1.77813 49.4498 4.03549 46.3976C6.2875 43.3526 9.48942 41.0726 13.2862 39.2771C20.8576 35.6964 30.9375 33.9826 40.9041 32.0347C50.9171 30.0777 60.8285 27.8835 68.2404 23.3817C71.9361 21.137 74.9947 18.3269 77.1317 14.6986C79.2677 11.0718 80.5 6.59852 80.5 1L81.5 1Z" fill="white"/>
</svg>
