<svg width="138" height="54" fill="none" xmlns="http://www.w3.org/2000/svg"><path d="M48.236 21.55v11.226A13.115 13.115 0 0144.3 42.07a13.517 13.517 0 01-9.44 3.864H22.49a13.52 13.52 0 01-9.348-3.772 13.121 13.121 0 01-4.026-9.128h17.71a4.546 4.546 0 003.066-1.15l9.197-9.06a4.75 4.75 0 011.685-1.021 4.802 4.802 0 011.962-.253h5.499z" fill="#F26921"/><path d="M9.117 31.783V20.556a13.121 13.121 0 013.937-9.297 13.523 13.523 0 019.443-3.866h12.365a13.525 13.525 0 019.35 3.778 13.127 13.127 0 014.024 9.132h-17.71a4.524 4.524 0 00-3.06 1.123l-9.197 9.082a4.76 4.76 0 01-1.678 1.017 4.81 4.81 0 01-1.952.258H9.117z" fill="#F26921"/><path d="M64.071 20.68a14.516 14.516 0 01-1.51 5.051 3.674 3.674 0 01-1.174 1.28 2.93 2.93 0 01-1.572.41 9.329 9.329 0 01-1.744-.118l-.171-1.959c.612.057 1.226.082 1.84.073a1.51 1.51 0 00.81-.208c.27-.18.49-.425.638-.712 1.242-1.905 1.865-5.822 1.869-11.75V10.84l-2.85-.292V9.33h14.19v1.207l-2.28.292v15.038l2.427.242v1.184h-7.538v-1.184l2.513-.287v-15.01h-4.98v2.173a51.733 51.733 0 01-.468 7.696zm18.81-6.81v1.185l-2.011.342v8.1l1.475-1.914 5.545-5.776v-.41l-1.818-.342V13.87h6.137v1.185l-1.767.342v10.491l1.841.22v1.184h-6.36v-1.185l1.967-.219v-8.217l-1.619 2.245-5.401 5.535v.482l1.618.197v1.184h-5.983v-1.207l1.84-.219v-10.49l-1.818-.343V13.87h6.354zM99.72 27.556a4.876 4.876 0 01-2.725-.74 4.77 4.77 0 01-1.834-2.118 8.625 8.625 0 01-.735-3.8 8.728 8.728 0 01.786-3.766 6.25 6.25 0 012.245-2.639 5.986 5.986 0 013.419-.965c.406-.001.811.051 1.202.157.349.09.687.215 1.009.376l-.074-2.01V9.246l-1.995-.264V7.948l3.927-.46.569.365v4.182l-.074 2.638a4.874 4.874 0 013.419-1.162 4.876 4.876 0 012.701.76 4.761 4.761 0 011.812 2.114 8.624 8.624 0 01.724 3.823 8.818 8.818 0 01-.781 3.766 6.247 6.247 0 01-2.279 2.639 6.05 6.05 0 01-3.419.965 5.07 5.07 0 01-1.202-.146 3.702 3.702 0 01-.958-.36l.074 1.859v2.806l2.166.259v1.212h-6.724v-1.212l2.04-.287v-2.806l.074-2.487a4.747 4.747 0 01-3.368 1.14zm2.529-12.524a3.01 3.01 0 00-1.276-.264 3.206 3.206 0 00-1.552.39 3.148 3.148 0 00-1.16 1.087c-.696.984-1.043 2.466-1.043 4.445 0 1.79.332 3.12.997 3.992.281.405.66.737 1.102.964a3.07 3.07 0 001.434.338c.45.005.898-.06 1.327-.191a3.14 3.14 0 00.958-.46v-9.767a2.335 2.335 0 00-.815-.534h.028zm4.086 11.002c.404.183.844.273 1.288.264a3.228 3.228 0 001.545-.38 3.17 3.17 0 001.167-1.068c.695-.973 1.043-2.423 1.043-4.35 0-1.823-.331-3.181-.992-4.076a2.981 2.981 0 00-1.086-.985 3.04 3.04 0 00-1.432-.356 4.59 4.59 0 00-1.362.19 3.15 3.15 0 00-.969.461v9.767c.222.221.483.402.769.533h.029zm23.198-12.164l.148 5.103h-1.619l-.661-3.649-3.265-.123v10.665l3.339.241v1.185h-9.202v-1.185l3.31-.241V15.201l-3.31.123-.667 3.649h-1.618l.148-5.103h13.397zm-69.57 22.745l1.173-.033a4.075 4.075 0 012.069.376c.186.121.337.289.437.486.1.197.146.416.133.636.01.34-.11.67-.337.927a1.88 1.88 0 01-.945.561c.49.014.962.19 1.339.5a1.355 1.355 0 01.467 1.027 1.726 1.726 0 01-.758 1.51 4.54 4.54 0 01-2.49.527h-.638l-.513-.028h-1.994v-.561l.82-.135v-5.04l-.81-.163v-.562h1.294l.753-.028zm2.239 2.408a1.124 1.124 0 00.359-.87.798.798 0 00-.342-.701 2.182 2.182 0 00-1.185-.236H59.94v2.139h1.14a1.63 1.63 0 001.122-.331zm-1.8 3.413c.189.019.379.028.57.028a2.96 2.96 0 001.52-.286 1.037 1.037 0 00.45-.96 1.108 1.108 0 00-.41-.948 2.162 2.162 0 00-1.293-.315h-1.328v2.42c.161.035.325.056.49.061zm15.51-7.869a.537.537 0 01-.422.162c-1.52.113-2.49.334-2.911.663-.25.203-.446.463-.57.758a3.734 3.734 0 00-.297 1.38c.282-.313.63-.562 1.02-.73a3.074 3.074 0 011.294-.297c1.71 0 2.558.994 2.558 2.992a4.225 4.225 0 01-.763 2.711 2.623 2.623 0 01-.977.73 2.65 2.65 0 01-1.206.213 2.569 2.569 0 01-1.242-.281 2.523 2.523 0 01-.946-.841c-.535-.741-.803-1.88-.803-3.402-.03-.8.113-1.6.421-2.34a4.495 4.495 0 011.089-1.483 3.254 3.254 0 011.094-.6 5.69 5.69 0 011.305-.303c.23-.02.46-.06.684-.118a.35.35 0 00.239-.242l.165-.494h.655l-.188 1.028a1.113 1.113 0 01-.199.494zm-2.98 2.806c-.22.087-.427.202-.615.343-.137.098-.255.22-.348.359a15.6 15.6 0 00.177 2.588 3.29 3.29 0 00.57 1.442 1.136 1.136 0 00.95.455c.266.015.53-.052.755-.19.226-.14.402-.343.505-.585a5.487 5.487 0 00.37-2.301 3.142 3.142 0 00-.358-1.746 1.369 1.369 0 00-1.19-.51 2.113 2.113 0 00-.81.157l-.006-.012zm6.462 8.538a.9.9 0 01-.274-.067v-1.005a.774.774 0 00.274.067c.13.008.262.008.393 0a1.43 1.43 0 00.991-.387 3.75 3.75 0 00.827-1.487h-.57l-2.234-5.72-.541-.152v-.561h2.849v.561l-.906.14 1.14 3.408.57 1.684.5-1.684 1.05-3.396-.787-.14v-.562h2.359v.561l-.57.14c-1.14 3.47-1.818 5.438-2.034 5.906a11.814 11.814 0 01-.724 1.555 2.568 2.568 0 01-.792.87 1.96 1.96 0 01-1.105.292 3.077 3.077 0 01-.416-.023zm13.784-2.291a26.53 26.53 0 01-.166 1.584h-.735c0-.28-.051-.702-.102-1.258a6.474 6.474 0 00-.108-.892h-4.44c-.028.073-.12.494-.256 1.263l-.188.887h-.786c0-1.09.062-2.027.102-2.807h.684c.376-.146.672-.651.889-1.51a14.7 14.7 0 00.33-3.53l-1.094-.163v-.562h6.023v.562l-1.042.162v5.052h1.031l-.142 1.213zm-4.354-2.879a4.625 4.625 0 01-.57 1.684h2.815v-5.102h-1.971v.73c.001.903-.09 1.803-.274 2.688zm7.271 5.17a.855.855 0 01-.273-.067v-1.005a.772.772 0 00.273.067c.131.008.263.008.393 0 .37.003.725-.136.992-.387a3.76 3.76 0 00.826-1.487h-.57l-2.228-5.72-.57-.152v-.561h2.85v.561l-.906.14 1.14 3.408.57 1.684.5-1.684 1.049-3.396-.786-.14v-.562h2.359v.561l-.57.14c-1.14 3.47-1.818 5.438-2.034 5.906a11.801 11.801 0 01-.724 1.555c-.189.34-.454.634-.775.858-.33.204-.716.306-1.106.292a3.071 3.071 0 01-.41-.01zm18.223-2.751a73.236 73.236 0 01-.222 2.06h-.701a3.69 3.69 0 00-.034-.392c-.086-1.123-.143-1.724-.165-1.774h-9.687v-.561l.997-.13v-4.995l-.975-.163v-.561h3.157v.56l-.974.164v5.052h2.553v-5.052l-.986-.163v-.561h3.111v.56l-.929.164v5.052h2.57v-5.052l-.986-.163v-.561h3.123v.56l-.94.164v5.052h1.196l-.108.74zm2.878-.892a3.73 3.73 0 01-.741-2.436 3.778 3.778 0 01.388-1.768 2.818 2.818 0 011.111-1.185 3.077 3.077 0 011.589-.415 2.349 2.349 0 011.71.595c.425.46.653 1.063.638 1.684a5.687 5.687 0 01-.119 1.111h-4.041a3.126 3.126 0 00.542 1.842 1.728 1.728 0 001.464.702 3.1 3.1 0 00.98-.17 2.49 2.49 0 00.792-.398l.228.511c-.29.27-.636.474-1.014.6a3.82 3.82 0 01-1.362.253 2.653 2.653 0 01-1.195-.208 2.612 2.612 0 01-.97-.718zm3.367-3.037c.023-.165.035-.332.035-.5a2.104 2.104 0 00-.325-1.184 1.138 1.138 0 00-.98-.432 1.342 1.342 0 00-1.083.483 2.777 2.777 0 00-.467 1.633h2.82zm4.348 3.037a3.705 3.705 0 01-.746-2.414 3.882 3.882 0 01.387-1.768 2.86 2.86 0 011.083-1.184 3.077 3.077 0 011.59-.416 2.344 2.344 0 011.709.596c.425.459.654 1.062.638 1.684a5.64 5.64 0 01-.079 1.077h-4.04a3.16 3.16 0 00.569 1.841 1.71 1.71 0 001.471.702c.333-.004.664-.06.98-.168.285-.087.553-.222.792-.399l.222.51a2.804 2.804 0 01-1.009.602 3.842 3.842 0 01-1.362.252 2.628 2.628 0 01-2.205-.915zm3.362-3.037a3.48 3.48 0 00.034-.5 2.007 2.007 0 00-.324-1.184 1.107 1.107 0 00-.98-.432 1.359 1.359 0 00-1.072.494 2.777 2.777 0 00-.467 1.634l2.809-.012z" fill="#333132"/></svg>