<svg width="92" height="36" fill="none" xmlns="http://www.w3.org/2000/svg"><path d="M32.157 14.366v7.485a8.744 8.744 0 01-2.623 6.195 9.011 9.011 0 01-6.293 2.576h-8.247a9.013 9.013 0 01-6.232-2.514 8.748 8.748 0 01-2.684-6.085h11.807a3.032 3.032 0 002.044-.767l6.131-6.04a3.164 3.164 0 011.123-.68 3.203 3.203 0 011.308-.17h3.666z" fill="#F26921"/><path d="M6.078 21.189v-7.485a8.747 8.747 0 012.624-6.198 9.015 9.015 0 016.296-2.577h8.243a9.016 9.016 0 016.234 2.518 8.751 8.751 0 012.682 6.089H20.35a3.016 3.016 0 00-2.04.748l-6.13 6.056c-.32.3-.702.531-1.118.678a3.21 3.21 0 01-1.302.172H6.08z" fill="#F26921"/><path d="M42.714 13.787a9.677 9.677 0 01-1.007 3.367 2.448 2.448 0 01-.782.854c-.316.188-.68.282-1.049.273a6.193 6.193 0 01-1.162-.079l-.114-1.306c.408.038.817.055 1.227.049.19.006.377-.043.54-.139.18-.12.326-.284.425-.475.828-1.27 1.243-3.88 1.246-7.832V7.226l-1.9-.194V6.22h9.46v.804l-1.52.195v10.025l1.618.161v.79H44.67v-.79l1.676-.19V7.207h-3.32v1.448c.023 1.715-.08 3.43-.312 5.13zm12.54-4.54v.79l-1.341.228v5.4l.984-1.276 3.696-3.85v-.274l-1.212-.228v-.79h4.091v.79l-1.177.228v6.994l1.227.146v.79h-4.24v-.79l1.311-.146V11.78l-1.079 1.497-3.601 3.69v.322l1.079.131v.79h-3.99v-.805l1.228-.146v-6.994l-1.212-.228v-.79h4.236zM66.48 18.37a3.25 3.25 0 01-1.816-.493 3.18 3.18 0 01-1.224-1.411 5.751 5.751 0 01-.49-2.534 5.82 5.82 0 01.525-2.51 4.167 4.167 0 011.496-1.76 3.991 3.991 0 012.28-.643c.27-.001.54.034.801.105.233.059.458.143.673.25l-.05-1.34v-1.87l-1.33-.176v-.689l2.618-.307.38.243v2.788l-.05 1.76a3.248 3.248 0 012.28-.775 3.25 3.25 0 011.8.506c.536.341.957.832 1.209 1.41a5.75 5.75 0 01.482 2.548 5.873 5.873 0 01-.52 2.511 4.164 4.164 0 01-1.52 1.759 4.033 4.033 0 01-2.28.643c-.27 0-.539-.032-.8-.097a2.457 2.457 0 01-.64-.24l.05 1.24v1.87l1.444.173v.808h-4.483v-.808l1.36-.191v-1.871l.05-1.658a3.164 3.164 0 01-2.245.76zm1.686-8.348a2.009 2.009 0 00-.85-.176 2.137 2.137 0 00-1.035.26 2.099 2.099 0 00-.774.724c-.464.656-.695 1.644-.695 2.964 0 1.192.221 2.08.665 2.66a2.036 2.036 0 001.69.869c.3.003.599-.04.885-.128a2.09 2.09 0 00.638-.306v-6.512a1.552 1.552 0 00-.543-.355h.02zm2.724 7.334c.269.122.563.182.859.176a2.145 2.145 0 001.808-.965c.463-.649.695-1.616.695-2.9 0-1.215-.22-2.121-.661-2.717a1.99 1.99 0 00-.724-.657 2.026 2.026 0 00-.955-.238 3.061 3.061 0 00-.908.128c-.232.064-.45.168-.646.306v6.512c.148.147.322.268.513.355h.019zm15.465-8.109l.099 3.402h-1.08l-.44-2.433-2.177-.082v7.11l2.227.161v.79h-6.135v-.79l2.207-.16v-7.111l-2.207.082-.445 2.433h-1.079l.099-3.402h8.931zM39.975 24.41l.783-.022c.474-.039.95.048 1.379.25a.842.842 0 01.38.749.89.89 0 01-.225.617 1.253 1.253 0 01-.63.375c.327.009.641.126.892.333a.902.902 0 01.312.684 1.14 1.14 0 01-.12.568 1.174 1.174 0 01-.385.44 3.027 3.027 0 01-1.66.35h-.426l-.342-.018h-1.329v-.374l.547-.09v-3.36l-.54-.109v-.374h.863l.501-.019zm1.493 1.606a.75.75 0 00.24-.58.532.532 0 00-.228-.468 1.454 1.454 0 00-.79-.157h-.73v1.425h.76c.268.022.535-.057.748-.22zm-1.2 2.275c.126.012.253.018.38.019.349.027.7-.039 1.014-.191a.702.702 0 00.3-.64.738.738 0 00-.274-.633 1.442 1.442 0 00-.862-.21h-.885v1.614c.107.023.217.037.327.04zm10.34-5.247a.357.357 0 01-.281.109c-1.013.075-1.66.222-1.941.442a1.312 1.312 0 00-.38.505 2.49 2.49 0 00-.198.92c.188-.209.42-.375.68-.486a2.05 2.05 0 01.863-.198c1.14 0 1.705.662 1.705 1.994a2.816 2.816 0 01-.509 1.808 1.774 1.774 0 01-1.455.629 1.711 1.711 0 01-.828-.188 1.681 1.681 0 01-.63-.561c-.358-.494-.536-1.254-.536-2.268a3.695 3.695 0 01.281-1.56c.17-.375.418-.712.726-.988a2.17 2.17 0 01.729-.4c.28-.102.573-.17.87-.203a2.72 2.72 0 00.456-.079.233.233 0 00.16-.16l.11-.33h.436l-.125.685a.741.741 0 01-.133.33zm-1.987 1.872a1.764 1.764 0 00-.41.228.947.947 0 00-.232.24c-.008.576.03 1.154.118 1.724.048.346.178.676.38.962a.757.757 0 00.634.303.869.869 0 00.503-.127.85.85 0 00.337-.39 3.659 3.659 0 00.247-1.533 2.096 2.096 0 00-.24-1.164.898.898 0 00-.794-.34 1.42 1.42 0 00-.539.104l-.004-.007zm4.309 5.691a.597.597 0 01-.183-.045v-.67a.478.478 0 00.182.045c.087.006.175.006.262 0a.954.954 0 00.661-.258c.258-.285.446-.624.551-.991h-.38l-1.489-3.814-.36-.1v-.375h1.898v.374l-.604.094.76 2.271.38 1.123.334-1.123.7-2.264-.525-.093v-.375h1.573v.375l-.38.093c-.76 2.313-1.212 3.625-1.356 3.937a7.875 7.875 0 01-.483 1.037c-.128.23-.308.43-.528.58-.22.136-.477.204-.737.194a2.039 2.039 0 01-.277-.015zm9.188-1.527c-.034.435-.072.786-.11 1.056h-.49c0-.187-.034-.468-.068-.838-.01-.2-.035-.4-.072-.595h-2.96c-.018.048-.08.329-.17.841l-.126.592h-.524c0-.726.042-1.351.068-1.871h.456c.25-.098.448-.434.593-1.007a9.837 9.837 0 00.22-2.354l-.73-.108v-.375h4.016v.375l-.695.108v3.368h.688l-.096.808zm-2.902-1.92a3.081 3.081 0 01-.38 1.123h1.877v-3.401h-1.315v.486a8.737 8.737 0 01-.182 1.793zm4.847 3.447a.565.565 0 01-.182-.045v-.67c.057.027.12.042.182.045.088.006.175.006.263 0a.953.953 0 00.66-.258c.258-.285.446-.624.551-.991h-.38l-1.485-3.814-.38-.1v-.375h1.9v.374l-.604.094.76 2.271.38 1.123.334-1.123.699-2.264-.525-.093v-.375h1.573v.375l-.38.093c-.76 2.313-1.212 3.625-1.356 3.937a7.876 7.876 0 01-.482 1.037 1.711 1.711 0 01-.517.572c-.22.136-.477.204-.737.195a2.047 2.047 0 01-.274-.008zm12.149-1.833a47.588 47.588 0 01-.148 1.373h-.467a2.395 2.395 0 00-.023-.262c-.057-.748-.095-1.149-.11-1.182h-6.458v-.374l.664-.087v-3.33l-.65-.109v-.374h2.105v.374l-.65.109v3.368h1.703v-3.368l-.658-.109v-.374h2.075v.374l-.62.109v3.368h1.714v-3.368l-.657-.109v-.374h2.081v.374l-.627.109v3.368h.798l-.072.494zm1.918-.595a2.488 2.488 0 01-.493-1.624 2.529 2.529 0 01.258-1.18c.163-.328.42-.603.74-.789a2.064 2.064 0 011.06-.277 1.564 1.564 0 011.14.397c.284.306.436.708.426 1.122a3.752 3.752 0 01-.08.742h-2.693a2.08 2.08 0 00.36 1.227 1.136 1.136 0 00.977.468c.222-.002.443-.04.653-.113.19-.056.37-.146.528-.265l.152.34a1.86 1.86 0 01-.676.4 2.55 2.55 0 01-.908.17 1.767 1.767 0 01-1.444-.618zm2.246-2.025a2.41 2.41 0 00.022-.333 1.395 1.395 0 00-.216-.79.758.758 0 00-.654-.288.896.896 0 00-.721.322 1.85 1.85 0 00-.312 1.09h1.88zm2.898 2.025a2.47 2.47 0 01-.498-1.61c-.008-.407.08-.81.259-1.178.159-.326.41-.6.722-.79.32-.186.687-.282 1.06-.277a1.563 1.563 0 011.139.397c.283.306.436.708.425 1.123.006.24-.012.48-.053.718h-2.693c-.005.438.128.867.38 1.228a1.135 1.135 0 00.98.467c.222-.002.443-.04.653-.112.19-.057.37-.147.528-.266l.148.34a1.873 1.873 0 01-.672.401c-.29.11-.597.168-.908.169a1.756 1.756 0 01-1.47-.61zm2.241-2.025a2.31 2.31 0 00.023-.333 1.34 1.34 0 00-.216-.79.73.73 0 00-.654-.288.905.905 0 00-.714.33 1.851 1.851 0 00-.311 1.089l1.872-.008z" fill="#333132"/></svg>